<?xml version="1.0" standalone="no"?>
<!DOCTYPE svg PUBLIC "-//W3C//DTD SVG 20010904//EN"
 "http://www.w3.org/TR/2001/REC-SVG-20010904/DTD/svg10.dtd">
<svg version="1.0" xmlns="http://www.w3.org/2000/svg"
 width="400.000000pt" height="400.000000pt" viewBox="0 0 400.000000 400.000000"
 preserveAspectRatio="xMidYMid meet">
<metadata>
Created by potrace 1.14, written by Peter Selinger 2001-2017
</metadata>
<g transform="translate(0.000000,400.000000) scale(0.100000,-0.100000)"
fill="#000000" stroke="none">
<path d="M1655 3558 c-8 -24 -28 -213 -32 -310 l-4 -96 -40 -26 c-35 -24 -39
-31 -39 -69 0 -40 -3 -43 -51 -72 -58 -34 -161 -132 -194 -185 -108 -172 -155
-357 -155 -609 0 -180 14 -270 79 -516 29 -111 136 -306 218 -398 18 -20 33
-41 33 -45 0 -4 -13 -16 -30 -25 -34 -21 -76 -73 -82 -102 -2 -11 -12 -21 -23
-23 -11 -2 -29 -7 -40 -11 -83 -34 -135 -59 -167 -79 l-36 -23 -39 25 c-21 13
-67 34 -103 46 -56 19 -81 21 -180 18 -292 -12 -498 -168 -589 -447 -24 -74
-29 -246 -9 -312 l11 -39 455 0 455 0 -6 133 c-4 72 -10 145 -13 161 l-7 29
43 -24 c74 -41 85 -64 88 -190 l4 -109 1359 0 1359 0 -2 367 -3 367 -80 41
c-44 23 -89 44 -100 48 -112 33 -139 37 -251 38 -97 0 -134 -4 -185 -21 -107
-35 -201 -88 -267 -150 -40 -37 -62 -44 -62 -19 0 23 -59 135 -81 156 -48 43
-123 73 -251 98 -18 3 -32 16 -43 38 -22 45 -74 76 -174 100 -47 11 -88 22
-90 23 -2 2 12 27 31 56 93 143 121 250 120 458 -2 340 -28 628 -68 770 -80
280 -207 414 -437 464 -15 4 -31 14 -34 24 -10 26 -35 41 -67 42 -31 0 -55 23
-56 53 0 9 -9 36 -19 60 -10 23 -21 51 -24 62 -3 11 -17 53 -32 94 -43 116
-77 165 -90 129z m64 -143 c13 -33 27 -69 31 -80 5 -11 14 -38 21 -60 7 -22
16 -44 20 -50 3 -5 9 -22 13 -37 9 -40 -31 -68 -100 -68 -75 0 -75 1 -44 264
15 130 21 133 59 31z m-199 -645 c16 -29 -11 -87 -44 -96 -34 -8 -75 3 -83 21
-11 30 7 66 40 80 45 20 75 18 87 -5z m-140 -195 c0 -18 -10 -30 -39 -44 -21
-11 -46 -28 -55 -37 -24 -23 -29 -13 -12 27 21 49 76 95 99 82 4 -2 7 -15 7
-28z m652 -14 c34 -38 36 -76 5 -122 -52 -77 -138 -101 -203 -57 -18 13 -39
33 -46 46 -16 30 -15 127 1 146 15 18 64 25 151 21 58 -3 67 -6 92 -34z m-421
-32 c89 -95 -36 -235 -169 -188 -44 15 -62 49 -62 113 0 61 5 66 84 91 74 23
114 19 147 -16z m-331 -286 c14 -14 39 -32 57 -39 33 -14 33 -14 53 -133 17
-99 -1 -116 -65 -60 -37 33 -67 111 -80 212 -7 54 0 58 35 20z"/>
<path d="M1897 2514 c-10 -10 -9 -52 2 -58 20 -13 42 7 39 33 -3 25 -26 39
-41 25z"/>
<path d="M1500 2475 c-17 -20 -8 -49 16 -53 26 -4 38 22 24 49 -13 23 -23 24
-40 4z"/>
</g>
</svg>
